<svg xmlns="http://www.w3.org/2000/svg" viewBox="0 0 1000 810" width="1000" height="810" role="img" aria-label="Satya — Full-stack and Flutter Developer">
  <rect x="0" y="0" width="1000" height="810" rx="16" fill="#010409"/>
  <rect x="6" y="6" width="988" height="798" rx="14" fill="#0d1117" stroke="#21262d" stroke-width="1"/>
  <path d="M6 20 a14 14 0 0 1 14 -14 h960 a14 14 0 0 1 14 14 v26 h-988 Z" fill="#161b22"/>
  <circle cx="34" cy="30" r="6.5" fill="#f85149"/><circle cx="56" cy="30" r="6.5" fill="#d29922"/><circle cx="78" cy="30" r="6.5" fill="#3fb950"/>
  <text x="500" y="34" text-anchor="middle" font-family="SF Mono, Cascadia Code, Menlo, Consolas, monospace" fill="#7d8590" font-size="13">SATYA-1919 / README.md / profile</text>
  <circle cx="46" cy="86" r="5" fill="#3fb950"/>
  <text x="60" y="91" font-family="SF Mono, Cascadia Code, Menlo, Consolas, monospace" font-size="15"><tspan fill="#7d8590">GITHUB / </tspan><tspan fill="#58a6ff" font-weight="700">@SATYA-1919</tspan></text>
  <text x="954" y="91" text-anchor="end" font-family="SF Mono, Cascadia Code, Menlo, Consolas, monospace" fill="#7d8590" font-size="14" letter-spacing="1">HYDERABAD, INDIA</text>
  <text x="44" y="146" font-family="-apple-system, Segoe UI, Helvetica, Arial, sans-serif" fill="#f0f6fc" font-size="54" font-weight="800" letter-spacing="3">SATYA</text>
  <rect x="226" y="112" width="18" height="42" fill="#58a6ff"><animate attributeName="opacity" values="1;1;0;0" keyTimes="0;0.5;0.5;1" dur="1.1s" repeatCount="indefinite"/></rect>
  <text x="46" y="184" font-family="-apple-system, Segoe UI, Helvetica, Arial, sans-serif" font-size="18"><tspan fill="#3fb950">#</tspan><tspan fill="#f0f6fc" dx="6">Full-stack</tspan><tspan fill="#7d8590" dx="8">·</tspan><tspan fill="#f0f6fc" dx="8">Flutter</tspan></text>
  <text x="46" y="212" font-family="-apple-system, Segoe UI, Helvetica, Arial, sans-serif" fill="#7d8590" font-size="16"><tspan fill="#3fb950">#</tspan><tspan dx="6">Electronics &amp; Computer Engineering</tspan></text>
  <text x="46" y="262" font-family="SF Mono, Cascadia Code, Menlo, Consolas, monospace" font-size="15"><tspan fill="#58a6ff">&gt; </tspan><tspan fill="#f0f6fc" font-weight="700" letter-spacing="1">CONTRIBUTION GRAPH</tspan></text>
  <text x="954" y="262" text-anchor="end" font-family="SF Mono, Cascadia Code, Menlo, Consolas, monospace" font-size="15"><tspan fill="#3fb950" font-weight="700">180</tspan><tspan fill="#7d8590" dx="6" letter-spacing="1">IN THE LAST YEAR</tspan></text>
  <polygon points="70,478 540,305 950,405 480,560" fill="#0d1117" stroke="#1b2129" stroke-width="1"/><line x1="70.0" y1="478.0" x2="480.0" y2="560.0" stroke="#161b22" stroke-width="0.8"/><line x1="93.5" y1="469.4" x2="503.5" y2="551.4" stroke="#161b22" stroke-width="0.8"/><line x1="117.0" y1="460.7" x2="527.0" y2="542.7" stroke="#161b22" stroke-width="0.8"/><line x1="140.5" y1="452.1" x2="550.5" y2="534.0" stroke="#161b22" stroke-width="0.8"/><line x1="164.0" y1="443.4" x2="574.0" y2="525.4" stroke="#161b22" stroke-width="0.8"/><line x1="187.5" y1="434.8" x2="597.5" y2="516.8" stroke="#161b22" stroke-width="0.8"/><line x1="211.0" y1="426.1" x2="621.0" y2="508.1" stroke="#161b22" stroke-width="0.8"/><line x1="234.5" y1="417.4" x2="644.5" y2="499.4" stroke="#161b22" stroke-width="0.8"/><line x1="258.0" y1="408.8" x2="668.0" y2="490.8" stroke="#161b22" stroke-width="0.8"/><line x1="281.5" y1="400.1" x2="691.5" y2="482.1" stroke="#161b22" stroke-width="0.8"/><line x1="305.0" y1="391.5" x2="715.0" y2="473.5" stroke="#161b22" stroke-width="0.8"/><line x1="328.5" y1="382.9" x2="738.5" y2="464.9" stroke="#161b22" stroke-width="0.8"/><line x1="352.0" y1="374.2" x2="762.0" y2="456.2" stroke="#161b22" stroke-width="0.8"/><line x1="375.5" y1="365.6" x2="785.5" y2="447.6" stroke="#161b22" stroke-width="0.8"/><line x1="399.0" y1="356.9" x2="809.0" y2="438.9" stroke="#161b22" stroke-width="0.8"/><line x1="422.5" y1="348.3" x2="832.5" y2="430.3" stroke="#161b22" stroke-width="0.8"/><line x1="446.0" y1="339.6" x2="856.0" y2="421.6" stroke="#161b22" stroke-width="0.8"/><line x1="469.5" y1="330.9" x2="879.5" y2="412.9" stroke="#161b22" stroke-width="0.8"/><line x1="493.0" y1="322.3" x2="903.0" y2="404.3" stroke="#161b22" stroke-width="0.8"/><line x1="516.5" y1="313.6" x2="926.5" y2="395.6" stroke="#161b22" stroke-width="0.8"/><line x1="540.0" y1="305.0" x2="950.0" y2="387.0" stroke="#161b22" stroke-width="0.8"/><line x1="70.0" y1="478.0" x2="540.0" y2="305.0" stroke="#161b22" stroke-width="0.8"/><line x1="128.6" y1="489.7" x2="598.6" y2="316.7" stroke="#161b22" stroke-width="0.8"/><line x1="187.1" y1="501.4" x2="657.1" y2="328.4" stroke="#161b22" stroke-width="0.8"/><line x1="245.7" y1="513.1" x2="715.7" y2="340.1" stroke="#161b22" stroke-width="0.8"/><line x1="304.3" y1="524.9" x2="774.3" y2="351.9" stroke="#161b22" stroke-width="0.8"/><line x1="362.9" y1="536.6" x2="832.9" y2="363.6" stroke="#161b22" stroke-width="0.8"/><line x1="421.4" y1="548.3" x2="891.4" y2="375.3" stroke="#161b22" stroke-width="0.8"/><line x1="480.0" y1="560.0" x2="950.0" y2="387.0" stroke="#161b22" stroke-width="0.8"/><polygon points="434.1,351.3 480.9,360.6 480.9,386.6 434.1,377.3" fill="#238636"/><polygon points="480.9,360.6 499.7,353.7 499.7,379.7 480.9,386.6" fill="#2ea043"/><polygon points="434.1,351.3 452.9,344.3 499.7,353.7 480.9,360.6" fill="#3fb950"/><polygon points="574.7,352.0 621.6,361.4 621.6,401.4 574.7,392.0" fill="#238636"/><polygon points="621.6,361.4 640.4,354.5 640.4,394.5 621.6,401.4" fill="#2ea043"/><polygon points="574.7,352.0 593.5,345.1 640.4,354.5 621.6,361.4" fill="#3fb950"/><polygon points="715.4,376.8 762.2,386.2 762.2,416.2 715.4,406.8" fill="#238636"/><polygon points="762.2,386.2 781.0,379.3 781.0,409.3 762.2,416.2" fill="#2ea043"/><polygon points="715.4,376.8 734.2,369.9 781.0,379.3 762.2,386.2" fill="#3fb950"/><polygon points="563.1,313.0 610.0,322.4 610.0,372.4 563.1,363.0" fill="#238636"/><polygon points="610.0,322.4 628.8,315.5 628.8,365.5 610.0,372.4" fill="#2ea043"/><polygon points="563.1,313.0 581.9,306.1 628.8,315.5 610.0,322.4" fill="#3fb950"/><polygon points="680.3,350.5 727.1,359.8 727.1,395.8 680.3,386.5" fill="#238636"/><polygon points="727.1,359.8 745.9,352.9 745.9,388.9 727.1,395.8" fill="#2ea043"/><polygon points="680.3,350.5 699.1,343.5 745.9,352.9 727.1,359.8" fill="#3fb950"/><polygon points="528.1,314.7 574.9,324.0 574.9,352.0 528.1,342.7" fill="#238636"/><polygon points="574.9,324.0 593.7,317.1 593.7,345.1 574.9,352.0" fill="#2ea043"/><polygon points="528.1,314.7 546.9,307.7 593.7,317.1 574.9,324.0" fill="#3fb950"/><polygon points="762.4,331.5 809.2,340.9 809.2,398.9 762.4,389.5" fill="#238636"/><polygon points="809.2,340.9 828.0,334.0 828.0,392.0 809.2,398.9" fill="#2ea043"/><polygon points="762.4,331.5 781.2,324.6 828.0,334.0 809.2,340.9" fill="#3fb950"/><polygon points="668.7,313.4 715.6,322.8 715.6,366.8 668.7,357.4" fill="#238636"/><polygon points="715.6,322.8 734.4,315.9 734.4,359.9 715.6,366.8" fill="#2ea043"/><polygon points="668.7,313.4 687.5,306.5 734.4,315.9 715.6,322.8" fill="#3fb950"/><polygon points="493.0,300.3 539.9,309.7 539.9,331.7 493.0,322.3" fill="#238636"/><polygon points="539.9,309.7 558.7,302.8 558.7,324.8 539.9,331.7" fill="#2ea043"/><polygon points="493.0,300.3 511.8,293.4 558.7,302.8 539.9,309.7" fill="#3fb950"/><polygon points="633.6,271.1 680.5,280.4 680.5,346.4 633.6,337.1" fill="#238636"/><polygon points="680.5,280.4 699.3,273.5 699.3,339.5 680.5,346.4" fill="#2ea043"/><polygon points="633.6,271.1 652.4,264.2 699.3,273.5 680.5,280.4" fill="#3fb950"/><polygon points="809.4,334.2 856.2,343.6 856.2,381.6 809.4,372.2" fill="#238636"/><polygon points="856.2,343.6 875.0,336.7 875.0,374.7 856.2,381.6" fill="#2ea043"/><polygon points="809.4,334.2 828.2,327.3 875.0,336.7 856.2,343.6" fill="#3fb950"/><polygon points="586.3,397.1 633.1,406.4 633.1,430.4 586.3,421.1" fill="#238636"/><polygon points="633.1,406.4 651.9,399.5 651.9,423.5 633.1,430.4" fill="#2ea043"/><polygon points="586.3,397.1 605.1,390.1 651.9,399.5 633.1,406.4" fill="#3fb950"/><polygon points="422.5,316.3 469.4,325.6 469.4,357.6 422.5,348.3" fill="#238636"/><polygon points="469.4,325.6 488.2,318.7 488.2,350.7 469.4,357.6" fill="#2ea043"/><polygon points="422.5,316.3 441.3,309.3 488.2,318.7 469.4,325.6" fill="#3fb950"/><polygon points="750.4,385.2 797.3,394.6 797.3,436.6 750.4,427.2" fill="#238636"/><polygon points="797.3,394.6 816.1,387.6 816.1,429.6 797.3,436.6" fill="#2ea043"/><polygon points="750.4,385.2 769.2,378.3 816.1,387.6 797.3,394.6" fill="#3fb950"/><polygon points="645.2,312.1 692.1,321.5 692.1,375.5 645.2,366.1" fill="#238636"/><polygon points="692.1,321.5 710.9,314.5 710.9,368.5 692.1,375.5" fill="#2ea043"/><polygon points="645.2,312.1 664.0,305.2 710.9,314.5 692.1,321.5" fill="#3fb950"/><polygon points="867.9,335.9 914.8,345.3 914.8,393.3 867.9,383.9" fill="#238636"/><polygon points="914.8,345.3 933.6,338.4 933.6,386.4 914.8,393.3" fill="#2ea043"/><polygon points="867.9,335.9 886.7,329.0 933.6,338.4 914.8,345.3" fill="#3fb950"/>
  <line x1="46" y1="588" x2="954" y2="588" stroke="#21262d" stroke-width="1"/>
  <text x="46" y="616" font-family="SF Mono, Cascadia Code, Menlo, Consolas, monospace" font-size="14"><tspan fill="#58a6ff">&gt; </tspan><tspan fill="#f0f6fc" font-weight="700" letter-spacing="1">STACK</tspan></text>
  <path d="M104.0 608.0 A40 40 0 0 1 132.1 676.5 L120.9 665.1 A24 24 0 0 0 104.0 624.0 Z" fill="#3178c6"/><path d="M132.1 676.5 A40 40 0 0 1 85.4 683.4 L92.8 669.2 A24 24 0 0 0 120.9 665.1 Z" fill="#a371f7"/><path d="M85.4 683.4 A40 40 0 0 1 64.4 642.5 L80.2 644.7 A24 24 0 0 0 92.8 669.2 Z" fill="#2ec4b6"/><path d="M64.4 642.5 A40 40 0 0 1 78.5 617.2 L88.7 629.5 A24 24 0 0 0 80.2 644.7 Z" fill="#f778ba"/><path d="M78.5 617.2 A40 40 0 0 1 96.3 608.8 L99.4 624.5 A24 24 0 0 0 88.7 629.5 Z" fill="#e36209"/><path d="M96.3 608.8 A40 40 0 0 1 104.3 608.0 L104.2 624.0 A24 24 0 0 0 99.4 624.5 Z" fill="#6e7681"/>
  <text x="104" y="644" text-anchor="middle" font-family="-apple-system, Segoe UI, Helvetica, Arial, sans-serif" fill="#f0f6fc" font-size="19" font-weight="800">6</text>
  <text x="104" y="659" text-anchor="middle" font-family="SF Mono, Cascadia Code, Menlo, Consolas, monospace" fill="#7d8590" font-size="8" letter-spacing="1">LANGS</text>
  <rect x="170" y="613" width="10" height="10" rx="2" fill="#3178c6"/><text x="186" y="622" font-family="-apple-system, Segoe UI, Helvetica, Arial, sans-serif" fill="#f0f6fc" font-size="12">TypeScript</text><text x="320" y="622" text-anchor="end" font-family="-apple-system, Segoe UI, Helvetica, Arial, sans-serif" fill="#7d8590" font-size="12">37.6%</text><rect x="170" y="631" width="10" height="10" rx="2" fill="#a371f7"/><text x="186" y="640" font-family="-apple-system, Segoe UI, Helvetica, Arial, sans-serif" fill="#f0f6fc" font-size="12">Kotlin</text><text x="320" y="640" text-anchor="end" font-family="-apple-system, Segoe UI, Helvetica, Arial, sans-serif" fill="#7d8590" font-size="12">20.1%</text><rect x="170" y="649" width="10" height="10" rx="2" fill="#2ec4b6"/><text x="186" y="658" font-family="-apple-system, Segoe UI, Helvetica, Arial, sans-serif" fill="#f0f6fc" font-size="12">Dart</text><text x="320" y="658" text-anchor="end" font-family="-apple-system, Segoe UI, Helvetica, Arial, sans-serif" fill="#7d8590" font-size="12">19.5%</text><rect x="170" y="667" width="10" height="10" rx="2" fill="#f778ba"/><text x="186" y="676" font-family="-apple-system, Segoe UI, Helvetica, Arial, sans-serif" fill="#f0f6fc" font-size="12">CSS</text><text x="320" y="676" text-anchor="end" font-family="-apple-system, Segoe UI, Helvetica, Arial, sans-serif" fill="#7d8590" font-size="12">11.8%</text><rect x="170" y="685" width="10" height="10" rx="2" fill="#e36209"/><text x="186" y="694" font-family="-apple-system, Segoe UI, Helvetica, Arial, sans-serif" fill="#f0f6fc" font-size="12">HTML</text><text x="320" y="694" text-anchor="end" font-family="-apple-system, Segoe UI, Helvetica, Arial, sans-serif" fill="#7d8590" font-size="12">7.9%</text><rect x="170" y="703" width="10" height="10" rx="2" fill="#6e7681"/><text x="186" y="712" font-family="-apple-system, Segoe UI, Helvetica, Arial, sans-serif" fill="#f0f6fc" font-size="12">other</text><text x="320" y="712" text-anchor="end" font-family="-apple-system, Segoe UI, Helvetica, Arial, sans-serif" fill="#7d8590" font-size="12">3.2%</text>
  <text x="560" y="616" font-family="SF Mono, Cascadia Code, Menlo, Consolas, monospace" font-size="14"><tspan fill="#58a6ff">&gt; </tspan><tspan fill="#f0f6fc" font-weight="700" letter-spacing="1">ACTIVITY</tspan></text>
  <text x="560" y="656" font-family="-apple-system, Segoe UI, Helvetica, Arial, sans-serif" fill="#f0f6fc" font-size="34" font-weight="800">180</text>
  <text x="560" y="674" font-family="SF Mono, Cascadia Code, Menlo, Consolas, monospace" fill="#7d8590" font-size="10" letter-spacing="1">CONTRIBUTIONS</text>
  <text x="720" y="656" font-family="-apple-system, Segoe UI, Helvetica, Arial, sans-serif" fill="#f0f6fc" font-size="34" font-weight="800">42</text>
  <text x="720" y="674" font-family="SF Mono, Cascadia Code, Menlo, Consolas, monospace" fill="#7d8590" font-size="10" letter-spacing="1">ACTIVE DAYS</text>
  <text x="560" y="708" font-family="-apple-system, Segoe UI, Helvetica, Arial, sans-serif" fill="#f0f6fc" font-size="28" font-weight="800">5</text>
  <text x="560" y="724" font-family="SF Mono, Cascadia Code, Menlo, Consolas, monospace" fill="#7d8590" font-size="10" letter-spacing="1">LONGEST STREAK</text>
  <text x="720" y="708" font-family="-apple-system, Segoe UI, Helvetica, Arial, sans-serif" fill="#f0f6fc" font-size="28" font-weight="800">6</text>
  <text x="720" y="724" font-family="SF Mono, Cascadia Code, Menlo, Consolas, monospace" fill="#7d8590" font-size="10" letter-spacing="1">PUBLIC REPOS</text>
  <text x="46" y="752" font-family="SF Mono, Cascadia Code, Menlo, Consolas, monospace" font-size="13"><tspan fill="#58a6ff">&gt; </tspan><tspan fill="#f0f6fc" font-weight="700" letter-spacing="1">LINES OF CODE</tspan></text>
  <text x="954" y="752" text-anchor="end" font-family="SF Mono, Cascadia Code, Menlo, Consolas, monospace" font-size="14"><tspan fill="#3fb950" font-weight="700">++ 12,394</tspan><tspan fill="#f85149" dx="14" font-weight="700">-- 4,421</tspan></text>
  <rect x="46" y="760" width="620" height="9" rx="4.5" fill="#3fb950"/>
  <rect x="666" y="760" width="288" height="9" rx="4.5" fill="#f85149"/>
  <text x="500" y="792" text-anchor="middle" font-family="SF Mono, Cascadia Code, Menlo, Consolas, monospace" font-size="13"><tspan fill="#58a6ff">linkedin.com/in/satyaki-tirumal-541b98283</tspan><tspan fill="#7d8590" dx="8">::</tspan><tspan fill="#7d8590" dx="8">+91 99497 50581</tspan><tspan fill="#7d8590" dx="8">::</tspan><tspan fill="#58a6ff" dx="8">satya.19.2004@gmail.com</tspan></text>
</svg>
